<svg width="14" height="12" viewBox="0 0 14 12" fill="none" xmlns="http://www.w3.org/2000/svg">
<path fill-rule="evenodd" clip-rule="evenodd" d="M0.623006 7.93375C0.831286 7.72547 1.16897 7.72547 1.37725 7.93375L3.641 10.1975L5.90474 7.93375C6.11302 7.72547 6.45071 7.72547 6.65899 7.93375C6.86727 8.14203 6.86727 8.47972 6.65899 8.688L4.01812 11.3289C3.80984 11.5371 3.47215 11.5371 3.26387 11.3289L0.623006 8.688C0.414727 8.47972 0.414727 8.14203 0.623006 7.93375Z" fill="#4D4D4D"/>
<path fill-rule="evenodd" clip-rule="evenodd" d="M3.64095 0.515153C3.9355 0.515153 4.17428 0.753934 4.17428 1.04849L4.17428 10.9517C4.17428 11.2463 3.9355 11.4851 3.64095 11.4851C3.3464 11.4851 3.10762 11.2463 3.10762 10.9517L3.10762 1.04849C3.10762 0.753934 3.3464 0.515153 3.64095 0.515153Z" fill="#4D4D4D"/>
<path fill-rule="evenodd" clip-rule="evenodd" d="M13.3772 4.06646C13.169 4.27474 12.8313 4.27474 12.623 4.06646L10.3592 1.80272L8.0955 4.06646C7.88722 4.27474 7.54953 4.27474 7.34126 4.06646C7.13298 3.85818 7.13298 3.52049 7.34126 3.31221L9.98212 0.671346C10.1904 0.463067 10.5281 0.463067 10.7364 0.671346L13.3772 3.31221C13.5855 3.52049 13.5855 3.85818 13.3772 4.06646Z" fill="#4D4D4D"/>
<path fill-rule="evenodd" clip-rule="evenodd" d="M10.3593 11.4851C10.0647 11.4851 9.82596 11.2463 9.82596 10.9517L9.82596 1.04847C9.82596 0.753922 10.0647 0.515141 10.3593 0.515141C10.6538 0.515142 10.8926 0.753922 10.8926 1.04847L10.8926 10.9517C10.8926 11.2463 10.6538 11.4851 10.3593 11.4851Z" fill="#4D4D4D"/>
</svg>
